<svg width="24" height="24" viewBox="0 0 24 24" fill="none" xmlns="http://www.w3.org/2000/svg">
<path fill-rule="evenodd" clip-rule="evenodd" d="M11.9998 20.1598C16.5065 20.1598 20.1598 16.5064 20.1598 11.9998C20.1598 7.49328 16.5065 3.83984 11.9998 3.83984C7.49319 3.83984 3.83984 7.49328 3.83984 11.9998C3.83984 16.5064 7.49319 20.1598 11.9998 20.1598ZM15.6149 8.38484C15.9148 8.68461 15.9148 9.17094 15.6149 9.47094L13.086 11.9998L15.6149 14.5287C15.9148 14.8287 15.9148 15.3151 15.6149 15.6148C15.315 15.9148 14.8287 15.9148 14.5288 15.6148L11.9998 13.0859L9.47091 15.6148C9.171 15.9148 8.68473 15.9148 8.38479 15.6148C8.08487 15.3151 8.08487 14.8287 8.38479 14.5287L10.9137 11.9998L8.38479 9.47094C8.08487 9.17094 8.08487 8.68461 8.38479 8.38484C8.6847 8.08484 9.17097 8.08484 9.47091 8.38484L11.9998 10.9137L14.5288 8.38484C14.8287 8.08484 15.315 8.08484 15.6149 8.38484Z" fill="#8E8E93"/>
</svg>
