<svg width="24" height="24" viewBox="0 0 24 24" fill="none" xmlns="http://www.w3.org/2000/svg">
<path d="M4.57019 7.94834V21.4553C4.57151 21.8131 4.7143 22.1559 4.96741 22.4088C5.22051 22.6617 5.56338 22.8043 5.92119 22.8053H18.0772C18.4352 22.8043 18.7782 22.6616 19.0313 22.4085C19.2845 22.1553 19.4271 21.8123 19.4282 21.4543V7.94834H4.57019ZM8.62119 20.1043H7.27219V10.6493H8.62119V20.1043ZM11.3212 20.1043H9.97319V10.6493H11.3212V20.1043ZM14.0212 20.1043H12.6752V10.6493H14.0212V20.1043ZM16.7212 20.1043H15.3762V10.6493H16.7272L16.7212 20.1043ZM19.7662 3.89534H15.3762V2.20734C15.3754 1.93892 15.2684 1.68171 15.0786 1.49191C14.8888 1.30211 14.6316 1.19513 14.3632 1.19434H9.63619C9.36742 1.1946 9.10971 1.30135 8.91948 1.49121C8.72924 1.68107 8.62198 1.93857 8.62119 2.20734V3.89534H4.23319C3.96494 3.89639 3.708 4.00349 3.51841 4.19326C3.32882 4.38304 3.22198 4.64009 3.22119 4.90834V6.59734H20.7792V4.90834C20.7784 4.63992 20.6714 4.38271 20.4816 4.19291C20.2918 4.00311 20.0346 3.89613 19.7662 3.89534V3.89534ZM14.0262 3.89534H9.97319V2.56634H14.0212V3.89534H14.0262Z" fill="#262626"/>
</svg>
