<svg width="57" height="47" viewBox="0 0 57 47" fill="none" xmlns="http://www.w3.org/2000/svg">
<path d="M38.0749 33.0797L28.5089 23.5137L18.9429 33.0797" stroke="#F29C46" stroke-width="3" stroke-linecap="round" stroke-linejoin="round"/>
<path d="M28.5089 23.5137V45.0377" stroke="#F29C46" stroke-width="3" stroke-linecap="round" stroke-linejoin="round"/>
<path d="M48.5739 38.7917C50.9065 37.52 52.7491 35.5077 53.8111 33.0725C54.873 30.6372 55.0937 27.9177 54.4384 25.3431C53.7831 22.7685 52.289 20.4854 50.1921 18.8542C48.0951 17.223 45.5146 16.3365 42.8579 16.3347H39.8449C39.1199 13.5357 37.7699 10.9374 35.8964 8.73517C34.0229 6.53289 31.6746 4.78389 29.028 3.61962C26.3814 2.45535 23.5054 1.90609 20.616 2.01311C17.7266 2.12014 14.899 2.88066 12.3458 4.23754C9.79259 5.59441 7.58012 7.51234 5.87467 9.84718C4.16922 12.182 3.01516 14.873 2.49921 17.718C1.98326 20.563 2.11885 23.4879 2.89578 26.2729C3.67271 29.058 5.07079 31.6307 6.98492 33.7977" stroke="#F29C46" stroke-width="3" stroke-linecap="round" stroke-linejoin="round"/>
<path d="M38.0749 33.0797L28.5089 23.5137L18.9429 33.0797" stroke="#F29C46" stroke-width="3" stroke-linecap="round" stroke-linejoin="round"/>
</svg>
