<svg width="146" height="158" viewBox="0 0 146 158" fill="none" xmlns="http://www.w3.org/2000/svg">
<path d="M33.6241 0C34.7611 0.264 35.9061 0.494018 37.0331 0.800018C42.7331 2.33202 44.4061 6.02902 41.8071 11.3C41.6501 11.619 41.4791 11.93 41.2611 12.348C41.554 12.5436 41.8571 12.7235 42.1691 12.887C51.3261 17.087 59.0001 23.263 65.8451 30.557C66.4771 31.231 67.0721 32 66.3191 32.84C65.3621 33.909 64.5251 33.273 63.7501 32.435C59.3241 27.5576 54.2777 23.2815 48.7401 19.716C45.8461 17.889 42.7891 16.316 39.9401 14.716C37.8021 16.907 35.9921 19.025 33.9171 20.841C27.5171 26.441 20.1491 29.708 11.5171 29.568C8.72525 29.6213 5.97995 28.8482 3.6261 27.346C0.696101 25.367 -0.0739181 22.215 1.98108 19.332C3.14788 17.7097 4.58238 16.2978 6.22309 15.157C15.7931 8.52201 26.1681 7.345 37.1651 10.923C37.5931 11.062 38.0201 11.204 38.6271 11.403C39.1646 10.3499 39.6323 9.26252 40.0271 8.14801C40.5991 6.15501 39.9001 4.84801 37.8331 4.01501C34.1561 2.54201 30.2881 2.63901 26.4331 2.88901C24.2331 3.03101 22.0511 3.395 19.8591 3.647C18.9221 3.755 17.8751 3.893 17.6321 2.647C17.3751 1.331 18.2971 1.015 19.3841 0.869995C21.2561 0.619995 23.1191 0.303 24.9841 0.0130005L33.6241 0ZM36.7791 13.78C36.3701 13.611 36.1071 13.48 35.8291 13.392C26.0881 10.264 16.8951 11.402 8.3541 17.072C6.9056 18.0366 5.61301 19.2169 4.52109 20.572C3.02109 22.444 3.44609 24.155 5.59809 25.245C6.87692 25.8859 8.25045 26.317 9.66611 26.522C15.6061 27.375 21.0371 25.693 26.1841 22.888C30.304 20.6122 33.9107 17.5117 36.7791 13.78Z" fill="#C0C0C0"/>
<path d="M112.905 113.57C111.188 113.763 109.662 113.884 108.159 114.141C107.941 114.204 107.74 114.315 107.57 114.466C107.4 114.617 107.266 114.803 107.177 115.012C105.188 120.92 101.914 126.313 97.5902 130.803C97.4407 131.064 97.3518 131.356 97.33 131.656C97.3082 131.956 97.354 132.258 97.4642 132.538C100.181 139.291 102.195 146.306 103.474 153.472C103.616 154.28 103.764 155.087 103.882 155.898C104.02 156.854 103.863 157.721 102.727 157.874C101.718 158.01 101.341 157.368 101.116 156.431C99.7372 150.66 98.3542 144.889 96.8542 139.149C96.3542 137.238 95.5072 135.417 94.7542 133.382C94.1872 133.776 93.7822 134.049 93.3862 134.335C87.3432 138.705 80.9172 142.217 73.4312 143.445C69.5224 144.101 65.5219 143.966 61.6659 143.05C57.8098 142.134 54.1764 140.455 50.9802 138.111C43.9242 133.211 38.7172 126.621 34.2742 119.392C26.5932 106.892 21.2892 93.343 17.3682 79.292C14.5372 69.143 12.3942 58.802 9.96819 48.54C9.64619 47.174 10.1752 46.484 11.5762 46.313C29.1292 44.173 46.5092 44.802 63.5862 49.748C69.8173 51.5377 75.7896 54.129 81.3532 57.457C81.6042 56.594 81.8362 55.845 82.0412 55.089C84.5851 45.5669 88.5421 36.4799 93.7802 28.131C94.0301 27.6327 94.4359 27.2296 94.9359 26.983C95.4359 26.7365 96.0027 26.6599 96.5502 26.765C108.73 27.987 118.982 33.335 127.871 41.474C135.295 48.274 140.764 56.374 143.057 66.309C145.966 78.909 142.446 89.836 133.957 99.314C129.083 104.756 123.567 109.378 116.738 112.262C116.467 112.458 116.238 112.706 116.064 112.992C115.889 113.277 115.774 113.594 115.723 113.925C114.151 121.243 111.773 128.365 108.632 135.159C108.504 135.438 108.385 135.722 108.254 136C107.854 136.833 107.276 137.387 106.311 136.947C105.375 136.521 105.311 135.756 105.711 134.88C106.243 133.715 106.77 132.547 107.267 131.366C109.713 125.629 111.601 119.669 112.905 113.57ZM71.9052 98.087C71.5052 97.612 71.3172 97.38 71.1172 97.161C65.3606 90.7166 58.9924 84.8458 52.1022 79.631C45.8922 75.012 39.3592 70.831 32.9422 66.491C32.0422 65.885 31.2422 65.291 31.9312 64.177C32.5802 63.127 33.5122 63.529 34.3532 64.057C34.5262 64.166 34.7102 64.257 34.8872 64.357C44.9371 70.2839 54.3483 77.2324 62.9712 85.092C63.3152 85.402 63.6642 85.706 64.3292 86.292C64.1592 84.892 64.1042 83.969 63.9292 83.07C63.2502 79.605 62.5582 76.143 61.8142 72.692C61.6082 71.737 61.7702 70.892 62.7142 70.769C63.2452 70.702 63.9062 71.369 64.4402 71.795C64.6402 71.954 64.6832 72.352 64.7402 72.652C65.5742 77.39 66.4502 82.121 67.1962 86.873C67.3593 88.376 67.9815 89.7923 68.9782 90.929C74.0092 96.619 78.8882 102.443 83.7892 108.247C84.6652 109.284 85.3842 110.453 86.4562 111.953C86.7722 108.953 87.0672 106.415 87.2792 103.868C87.2472 103.417 87.0748 102.987 86.7862 102.638C81.7982 95.455 79.7072 87.357 79.2932 78.751C79.0354 72.9486 79.4786 67.1363 80.6132 61.44C80.7722 60.624 80.6342 60.218 79.9302 59.852C77.9742 58.834 76.0842 57.685 74.0942 56.742C65.1792 52.6615 55.6655 50.0424 45.9182 48.985C36.625 47.9157 27.2512 47.7312 17.9232 48.434C16.2622 48.543 14.6112 48.807 12.8232 49.014C13.8232 53.665 14.7012 58.085 15.7232 62.471C19.4822 78.58 24.3872 94.304 31.8002 109.15C36.2062 117.973 41.3922 126.271 48.8582 132.899C54.9192 138.279 61.8642 141.429 70.1502 140.948C75.3908 140.586 80.4738 139.002 84.9922 136.323C87.9522 134.631 90.7662 132.682 93.6682 130.833C92.7142 128.867 91.9782 127.233 91.1142 125.663C90.9664 125.471 90.7742 125.317 90.5541 125.215C90.3339 125.114 90.0924 125.067 89.8502 125.079C80.8269 126.798 71.5047 126.002 62.9032 122.779C61.9282 122.43 60.9442 122.061 61.3622 120.772C61.7922 119.449 62.8282 119.772 63.7802 120.124C70.1551 122.477 76.9518 123.469 83.7332 123.037C85.5402 122.93 87.3332 122.598 89.1742 122.365C89.1512 122.141 89.1043 121.919 89.0342 121.705C85.0518 114.572 80.3615 107.859 75.0342 101.666C74.5563 101.236 73.9478 100.978 73.3062 100.935C70.1522 100.549 66.9452 100.463 63.8372 99.857C59.3212 98.976 54.8722 97.745 50.3992 96.648C49.4992 96.428 48.8432 95.886 49.1432 94.89C49.1897 94.6866 49.2821 94.4966 49.4135 94.3345C49.5448 94.1724 49.7116 94.0425 49.9009 93.9548C50.0902 93.8672 50.2971 93.8241 50.5057 93.8288C50.7143 93.8335 50.919 93.8859 51.1042 93.982C51.7832 94.208 52.4922 94.341 53.1802 94.541C59.281 96.3844 65.5607 97.5731 71.9132 98.087H71.9052ZM113.712 81.205C112.437 69.9101 108.951 58.9766 103.453 49.028C102.275 46.869 100.841 44.85 99.6822 42.682C99.4202 42.191 99.8102 41.351 99.9002 40.671C100.58 40.7557 101.249 40.9157 101.893 41.148C102.254 41.32 102.48 41.848 102.693 42.255C105.373 47.438 108.165 52.569 110.659 57.841C112.034 60.746 112.902 63.891 114.067 67.117C115.74 63.3137 116.891 59.3022 117.491 55.191C117.638 54.164 117.915 53.283 119.118 53.411C120.379 53.545 120.354 54.57 120.269 55.536C120.246 55.791 120.231 56.049 120.187 56.301C119.316 61.1468 117.834 65.8625 115.775 70.335C115.431 71.2149 115.327 72.1708 115.475 73.104C116.101 77.773 116.941 82.415 117.482 87.093C117.832 90.125 117.798 93.201 117.935 96.257L118.228 96.521C118.439 96.186 118.641 95.845 118.863 95.521C121.073 92.255 123.527 89.121 125.426 85.686C126.889 82.6994 128.148 79.617 129.194 76.46C129.528 75.593 129.95 74.936 130.954 75.184C132.066 75.459 132.139 76.318 131.882 77.265C131.828 77.465 131.75 77.653 131.69 77.849C129.207 86.3133 124.602 94.0024 118.311 100.186C117.933 100.513 117.665 100.95 117.544 101.435C117.226 103.962 117 106.5 116.739 109.073C116.996 108.995 117.248 108.904 117.495 108.8C118.049 108.532 118.595 108.256 119.139 107.96C124.06 105.153 128.451 101.506 132.112 97.183C139.824 88.421 142.978 78.372 140.312 66.815C138.55 59.5423 134.929 52.8517 129.805 47.398C121.152 37.85 110.615 31.624 97.7422 29.659C97.3328 29.5246 96.8887 29.5415 96.4907 29.7066C96.0927 29.8718 95.7672 30.1742 95.5732 30.559C86.3782 46.259 80.8882 62.915 82.3272 81.371C82.7889 88.2638 85.0494 94.9152 88.8832 100.662C94.5732 109.132 102.9 112.725 112.004 110.762C112.5 110.72 112.962 110.495 113.303 110.133C113.643 109.77 113.838 109.294 113.849 108.797C114.94 101.686 115.255 94.4766 114.79 87.297C114.787 86.6449 114.631 86.0026 114.336 85.4211C114.041 84.8395 113.615 84.3348 113.09 83.947C106.565 78.9213 100.859 72.9131 96.1772 66.137C95.5822 65.254 95.3032 64.417 96.3442 63.764C97.3112 63.158 97.9162 63.799 98.5012 64.564C100.34 66.964 102.08 69.475 104.138 71.681C107.205 74.971 110.514 78.041 113.72 81.205H113.712ZM104.536 113.974C98.7432 113.262 94.1362 110.574 90.0112 106.566C89.5242 109.594 89.0632 112.397 88.6382 115.205C88.6052 115.419 88.7992 115.681 88.9212 115.905C91.2282 120.064 93.5412 124.219 95.8952 128.452C99.8327 124.34 102.789 119.39 104.544 113.974H104.536Z" fill="#C0C0C0"/>
<path d="M47.7611 150.54C39.5991 150.44 32.8091 147.021 26.8191 141.763C20.0681 135.837 15.2241 128.481 11.4431 120.439C9.09411 115.445 7.18109 110.246 5.09909 105.128C4.67909 104.096 4.04411 102.828 5.63711 102.293C7.13711 101.793 7.36411 103.168 7.70511 104.153C10.0327 111.157 13.0212 117.925 16.6301 124.363C20.8741 131.733 25.9431 138.394 33.1921 143.102C37.8901 146.304 43.4802 147.939 49.1631 147.772C50.2401 147.732 51.6901 147.429 51.7731 149.1C51.8611 150.873 50.3621 150.46 49.3021 150.533C48.7901 150.57 48.2751 150.54 47.7611 150.54Z" fill="#C0C0C0"/>
<path d="M105.012 10.747C103.78 10.747 102.547 10.733 101.312 10.747C100.294 10.762 99.3832 10.571 99.3462 9.34096C99.3112 8.16796 100.202 7.98496 101.146 7.92296C118.757 6.76096 135.051 14.408 142.795 33.394C143.723 35.7788 144.497 38.2205 145.113 40.704C145.194 41.081 145.193 41.4708 145.11 41.8475C145.028 42.2241 144.867 42.5788 144.636 42.888C143.907 43.688 142.812 43.034 142.504 41.681C141.433 36.8144 139.544 32.1649 136.916 27.931C130.785 18.162 122.046 12.421 110.536 11.044C108.703 10.825 106.857 10.716 105.018 10.556L105.012 10.747Z" fill="#C0C0C0"/>
</svg>
