<svg width="250" height="250" viewBox="0 0 250 250" fill="none" xmlns="http://www.w3.org/2000/svg">
<g clip-path="url(#clip0_1084_10088)">
<path d="M229.999 146.787C229.579 147.469 228.977 148.02 228.261 148.378C227.546 148.736 226.745 148.887 225.949 148.813C159.98 148.777 94.0114 148.766 28.0438 148.78C27.5094 148.826 26.9712 148.803 26.4428 148.71C25.7015 148.595 25.0336 148.196 24.5796 147.597C24.1257 146.998 23.9213 146.246 24.0093 145.499C24.0144 144.782 24.2929 144.095 24.7876 143.578C25.2823 143.061 25.9555 142.754 26.669 142.72C26.8646 142.671 27.0673 142.657 27.2677 142.679C31.1224 143.591 33.1114 141.295 35.234 138.539C47.5689 122.443 60.0399 106.468 72.4288 90.4206C73.5857 88.6288 75.2823 87.2538 77.2718 86.4954C79.2614 85.7371 81.4402 85.6349 83.4916 86.2038C83.9077 86.1866 84.315 86.0784 84.6852 85.887C85.0554 85.6956 85.3794 85.4255 85.6348 85.0955C92.2725 76.9945 98.8459 68.842 105.435 60.7023C110.208 54.8068 114.981 48.9113 119.756 43.0157C120.573 41.8534 121.641 40.8905 122.879 40.1987C124.118 39.507 125.497 39.104 126.912 39.0198C128.327 38.9356 129.744 39.1723 131.055 39.7124C132.367 40.2525 133.54 41.082 134.489 42.1394C142.501 50.078 150.46 58.0682 158.364 66.1099C159.523 67.2878 160.42 67.5223 161.785 66.6254C162.821 66.0098 163.895 65.4622 165.002 64.9861C166.111 64.3424 167.339 63.9317 168.612 63.779C169.884 63.6263 171.174 63.7348 172.403 64.0979C173.633 64.461 174.776 65.0711 175.762 65.8911C176.749 66.7111 177.559 67.7238 178.144 68.8677C186.634 83.0198 195.108 97.183 203.564 111.357C209.451 121.203 215.364 131.036 221.198 140.916C221.458 141.524 221.912 142.027 222.489 142.348C223.066 142.668 223.732 142.788 224.384 142.686C225.386 142.426 226.439 142.445 227.431 142.741C228.422 143.036 229.315 143.598 230.012 144.364L229.999 146.787ZM215.046 142.663C214.503 141.697 214.141 141.011 213.745 140.344C204.898 125.545 196.049 110.749 187.197 95.9544C182.477 88.0673 177.754 80.1828 173.027 72.3009C171.704 70.0998 170.17 69.3755 168.214 70.2905C164.591 71.9839 160.433 73.2546 160.364 78.4353C160.351 78.5696 160.314 78.7006 160.256 78.8219C160.019 79.5664 159.513 80.1952 158.838 80.5853C158.163 80.9753 157.367 81.0984 156.607 80.9303C155.846 80.7461 155.188 80.2715 154.772 79.6075C154.356 78.9436 154.215 78.1429 154.379 77.376C154.529 76.2463 154.824 75.1408 155.257 74.0871C155.537 73.5219 155.604 72.8749 155.448 72.2637C155.292 71.6526 154.923 71.118 154.407 70.757C146.638 63.0452 138.932 55.2742 131.202 47.5237C128.046 44.3586 126.509 44.4307 123.75 47.8407L99.5346 77.7394C96.5075 81.4793 93.488 85.2141 90.322 89.1421C93.4058 90.4824 96.289 91.6784 99.1209 92.9955C99.5677 93.2669 100.094 93.3766 100.611 93.3063C101.129 93.2359 101.607 92.9898 101.966 92.6088C105.82 89.2787 109.762 86.0311 113.686 82.7732C114.585 81.8566 115.66 81.1314 116.845 80.6411C118.03 80.1508 119.302 79.9054 120.584 79.9196C121.866 79.9338 123.132 80.2073 124.306 80.7237C125.48 81.2402 126.538 81.989 127.417 82.9253C131.917 86.8534 136.417 90.7831 140.916 94.7146C143.054 96.5781 145.204 98.421 147.561 100.455C148.604 96.8462 149.527 93.5754 150.511 90.3149C151.151 88.1988 152.68 87.1961 154.366 87.6807C154.803 87.7996 155.209 88.0121 155.556 88.3036C155.904 88.5952 156.184 88.9588 156.378 89.3694C156.571 89.78 156.674 90.2279 156.678 90.6821C156.683 91.1364 156.589 91.5862 156.404 92.0006C155.316 95.8668 154.137 99.7149 153.127 103.599C153.053 103.978 153.065 104.369 153.162 104.743C153.259 105.117 153.439 105.464 153.687 105.759C167.406 117.806 181.161 129.813 194.95 141.779C195.355 142.213 195.885 142.507 196.466 142.622C202.523 142.663 208.601 142.648 215.043 142.648L215.046 142.663ZM185.894 142.581L186.187 142.112C185.696 141.8 185.222 141.463 184.766 141.101C164.432 123.38 144.101 105.656 123.773 87.9282C120.946 85.4564 119.954 85.495 117.03 87.9591C113.542 90.9 110.091 93.8873 106.517 96.7225C106.246 96.863 106.009 97.06 105.821 97.3003C105.633 97.5407 105.499 97.8187 105.427 98.1156C105.356 98.4124 105.348 98.7213 105.406 99.0212C105.464 99.3211 105.585 99.6052 105.761 99.8541C112.18 113.498 118.547 127.166 124.862 140.859C125.045 141.45 125.427 141.958 125.943 142.297C126.459 142.636 127.076 142.785 127.689 142.717C146.523 142.661 165.354 142.681 184.188 142.676C184.753 142.663 185.321 142.594 185.892 142.563L185.894 142.581ZM64.537 142.534H118.71C118.66 142.224 118.585 141.919 118.484 141.622C112.123 127.946 105.744 114.278 99.347 100.62C98.9273 99.884 98.2781 99.3071 97.4994 98.9778C92.6168 96.8101 87.6777 94.7224 82.7515 92.6346C80.1509 91.5315 79.1538 91.8176 77.4064 94.0728C65.3456 109.615 53.2875 125.159 41.2318 140.704C40.8155 141.243 40.4609 141.823 39.8698 142.671C45.4694 142.671 50.6218 142.632 55.7716 142.699C56.2922 142.755 56.817 142.642 57.2685 142.376C57.72 142.11 58.0745 141.706 58.2796 141.223C61.2811 135.678 64.37 130.183 67.428 124.67C69.1523 121.562 70.8355 118.43 72.6087 115.352C72.7855 114.969 73.0395 114.627 73.3545 114.347C73.6695 114.068 74.0387 113.856 74.4391 113.726C74.8395 113.596 75.2623 113.551 75.681 113.593C76.0997 113.634 76.5053 113.763 76.8723 113.969C77.2393 114.176 77.5598 114.456 77.8136 114.793C78.0675 115.129 78.2491 115.515 78.3473 115.925C78.4455 116.336 78.458 116.762 78.3841 117.177C78.3102 117.593 78.1514 117.989 77.9178 118.34C77.504 119.183 77.0286 119.994 76.5738 120.817C72.6087 127.951 68.6435 135.104 64.537 142.519V142.534Z" fill="#262626"/>
<path d="M44.442 192.803H40.8584V162.122H44.442V192.803Z" fill="#262626"/>
<path d="M62.1681 192.589C61.3433 193.045 60.2554 193.273 58.9045 193.273C55.0791 193.273 53.1664 191.134 53.1664 186.855V173.89H49.4121V170.894H53.1664V165.546L56.6647 164.412V170.894H62.1681V173.89H56.6647V186.234C56.6647 187.704 56.9136 188.752 57.4113 189.38C57.909 190.007 58.7338 190.321 59.8857 190.321C60.7674 190.321 61.5282 190.078 62.1681 189.594V192.589Z" fill="#262626"/>
<path d="M82.4753 192.803H78.977V189.38H78.8917C77.37 192.004 75.1303 193.316 72.1724 193.316C69.9966 193.316 68.2901 192.739 67.0529 191.583C65.8299 190.428 65.2185 188.895 65.2185 186.983C65.2185 182.89 67.6218 180.508 72.4283 179.837L78.977 178.917C78.977 175.195 77.4767 173.333 74.4761 173.333C71.8453 173.333 69.4704 174.232 67.3516 176.029V172.435C69.4989 171.065 71.9733 170.381 74.7748 170.381C79.9084 170.381 82.4753 173.105 82.4753 178.554V192.803ZM78.977 181.72L73.7082 182.448C72.0871 182.676 70.8641 183.082 70.0393 183.667C69.2145 184.238 68.8021 185.257 68.8021 186.727C68.8021 187.796 69.1789 188.674 69.9326 189.358C70.7005 190.029 71.7173 190.364 72.983 190.364C74.7179 190.364 76.1471 189.758 77.2705 188.545C78.4082 187.319 78.977 185.771 78.977 183.902V181.72Z" fill="#262626"/>
<path d="M103.956 191.797C102.278 192.81 100.287 193.316 97.9829 193.316C94.8686 193.316 92.3515 192.304 90.4318 190.278C88.5262 188.238 87.5734 185.6 87.5734 182.362C87.5734 178.753 88.6044 175.858 90.6664 173.676C92.7284 171.479 95.4801 170.381 98.9215 170.381C100.841 170.381 102.534 170.737 103.998 171.451V175.045C102.377 173.904 100.642 173.333 98.7935 173.333C96.5609 173.333 94.7264 174.139 93.2901 175.751C91.868 177.348 91.157 179.452 91.157 182.062C91.157 184.63 91.8254 186.655 93.1621 188.139C94.5131 189.622 96.3191 190.364 98.5802 190.364C100.486 190.364 102.278 189.729 103.956 188.46V191.797Z" fill="#262626"/>
<path d="M118.375 193.316C115.147 193.316 112.566 192.296 110.632 190.257C108.712 188.203 107.753 185.486 107.753 182.105C107.753 178.425 108.755 175.551 110.76 173.483C112.765 171.415 115.474 170.381 118.887 170.381C122.144 170.381 124.682 171.386 126.503 173.397C128.337 175.409 129.254 178.197 129.254 181.763C129.254 185.257 128.266 188.06 126.289 190.171C124.327 192.268 121.689 193.316 118.375 193.316ZM118.631 173.333C116.385 173.333 114.607 174.104 113.299 175.644C111.99 177.17 111.336 179.281 111.336 181.977C111.336 184.573 111.997 186.62 113.32 188.117C114.642 189.615 116.413 190.364 118.631 190.364C120.892 190.364 122.627 189.629 123.836 188.16C125.059 186.691 125.671 184.601 125.671 181.891C125.671 179.153 125.059 177.042 123.836 175.558C122.627 174.075 120.892 173.333 118.631 173.333Z" fill="#262626"/>
<path d="M138.341 192.803H134.843V160.368H138.341V192.803Z" fill="#262626"/>
<path d="M154.553 193.316C151.325 193.316 148.744 192.296 146.81 190.257C144.89 188.203 143.93 185.486 143.93 182.105C143.93 178.425 144.933 175.551 146.938 173.483C148.943 171.415 151.652 170.381 155.065 170.381C158.321 170.381 160.86 171.386 162.68 173.397C164.514 175.409 165.432 178.197 165.432 181.763C165.432 185.257 164.443 188.06 162.467 190.171C160.504 192.268 157.866 193.316 154.553 193.316ZM154.809 173.333C152.562 173.333 150.784 174.104 149.476 175.644C148.168 177.17 147.514 179.281 147.514 181.977C147.514 184.573 148.175 186.62 149.497 188.117C150.82 189.615 152.59 190.364 154.809 190.364C157.07 190.364 158.805 189.629 160.014 188.16C161.237 186.691 161.848 184.601 161.848 181.891C161.848 179.153 161.237 177.042 160.014 175.558C158.805 174.075 157.07 173.333 154.809 173.333Z" fill="#262626"/>
<path d="M202.036 192.803H198.538V180.222C198.538 177.798 198.161 176.043 197.407 174.959C196.667 173.875 195.416 173.333 193.653 173.333C192.16 173.333 190.887 174.018 189.834 175.387C188.796 176.756 188.277 178.397 188.277 180.308V192.803H184.779V179.795C184.779 175.487 183.122 173.333 179.809 173.333C178.273 173.333 177.007 173.982 176.012 175.28C175.016 176.564 174.519 178.24 174.519 180.308V192.803H171.02V170.894H174.519V174.36H174.604C176.154 171.707 178.415 170.381 181.387 170.381C182.881 170.381 184.182 170.802 185.291 171.643C186.4 172.47 187.161 173.562 187.573 174.917C189.195 171.893 191.612 170.381 194.826 170.381C199.632 170.381 202.036 173.355 202.036 179.303V192.803Z" fill="#262626"/>
<path d="M210.44 165.332C209.815 165.332 209.281 165.118 208.84 164.69C208.4 164.262 208.179 163.72 208.179 163.064C208.179 162.408 208.4 161.866 208.84 161.438C209.281 160.996 209.815 160.774 210.44 160.774C211.08 160.774 211.621 160.996 212.061 161.438C212.516 161.866 212.744 162.408 212.744 163.064C212.744 163.691 212.516 164.226 212.061 164.668C211.621 165.11 211.08 165.332 210.44 165.332ZM212.147 192.803H208.648V170.894H212.147V192.803Z" fill="#262626"/>
<path d="M87.1183 210.845H85.6126L83.8057 207.809C83.6401 207.528 83.4795 207.288 83.3239 207.092C83.1683 206.891 83.0077 206.727 82.8421 206.601C82.6815 206.475 82.5058 206.385 82.3151 206.329C82.1294 206.269 81.9186 206.239 81.6827 206.239H80.6437V210.845H79.3789V200.017H82.6011C83.0729 200.017 83.5071 200.077 83.9036 200.198C84.3051 200.314 84.6514 200.492 84.9425 200.734C85.2387 200.976 85.4695 201.278 85.6352 201.64C85.8008 201.998 85.8836 202.418 85.8836 202.901C85.8836 203.279 85.8259 203.626 85.7105 203.943C85.6 204.255 85.4394 204.535 85.2286 204.781C85.0229 205.028 84.7719 205.24 84.4758 205.416C84.1847 205.587 83.8559 205.72 83.4895 205.816V205.846C83.6702 205.927 83.8258 206.02 83.9563 206.126C84.0918 206.226 84.2198 206.347 84.3403 206.488C84.4607 206.629 84.5787 206.79 84.6941 206.971C84.8146 207.148 84.9476 207.354 85.0931 207.591L87.1183 210.845ZM80.6437 201.164V205.091H82.3602C82.6764 205.091 82.9675 205.043 83.2336 204.948C83.5046 204.852 83.738 204.716 83.9337 204.54C84.1295 204.359 84.2825 204.14 84.393 203.883C84.5034 203.621 84.5586 203.329 84.5586 203.007C84.5586 202.428 84.3704 201.977 83.9939 201.655C83.6225 201.328 83.083 201.164 82.3753 201.164H80.6437Z" fill="#262626"/>
<path d="M94.3307 210.845H88.609V200.017H94.0898V201.164H89.8738V204.766H93.7736V205.907H89.8738V209.697H94.3307V210.845Z" fill="#262626"/>
<path d="M95.9042 210.407V208.912C96.0748 209.063 96.2781 209.199 96.514 209.32C96.7549 209.441 97.0059 209.544 97.2669 209.629C97.5329 209.71 97.7989 209.773 98.0649 209.818C98.3309 209.863 98.5768 209.886 98.8027 209.886C99.5807 209.886 100.16 209.743 100.542 209.456C100.928 209.164 101.122 208.746 101.122 208.202C101.122 207.91 101.056 207.656 100.926 207.439C100.8 207.223 100.625 207.027 100.399 206.85C100.173 206.669 99.9044 206.498 99.5932 206.337C99.287 206.171 98.9558 205.997 98.5994 205.816C98.223 205.625 97.8717 205.431 97.5454 205.235C97.2192 205.038 96.9356 204.822 96.6947 204.585C96.4538 204.349 96.2631 204.082 96.1225 203.785C95.987 203.483 95.9193 203.13 95.9193 202.728C95.9193 202.234 96.0272 201.806 96.243 201.444C96.4588 201.076 96.7424 200.774 97.0937 200.538C97.445 200.301 97.8441 200.125 98.2908 200.009C98.7425 199.893 99.2017 199.835 99.6685 199.835C100.733 199.835 101.508 199.964 101.995 200.221V201.648C101.357 201.205 100.539 200.983 99.5405 200.983C99.2645 200.983 98.9884 201.013 98.7124 201.074C98.4363 201.129 98.1904 201.222 97.9746 201.353C97.7587 201.484 97.5831 201.653 97.4476 201.859C97.312 202.066 97.2443 202.317 97.2443 202.614C97.2443 202.891 97.2945 203.13 97.3949 203.332C97.5003 203.533 97.6533 203.717 97.8541 203.883C98.0549 204.049 98.2983 204.21 98.5844 204.366C98.8755 204.522 99.2093 204.693 99.5857 204.88C99.9722 205.071 100.339 205.272 100.685 205.484C101.031 205.695 101.335 205.929 101.596 206.186C101.857 206.443 102.063 206.727 102.213 207.039C102.369 207.351 102.447 207.709 102.447 208.112C102.447 208.645 102.341 209.098 102.13 209.471C101.925 209.838 101.644 210.138 101.287 210.369C100.936 210.601 100.529 210.767 100.068 210.868C99.6058 210.973 99.1189 211.026 98.607 211.026C98.4363 211.026 98.2255 211.011 97.9746 210.981C97.7236 210.956 97.4676 210.916 97.2066 210.86C96.9457 210.81 96.6972 210.747 96.4613 210.671C96.2304 210.591 96.0447 210.503 95.9042 210.407Z" fill="#262626"/>
<path d="M110.984 201.164H107.867V210.845H106.602V201.164H103.493V200.017H110.984V201.164Z" fill="#262626"/>
<path d="M119.988 210.845H118.588L117.444 207.809H112.866L111.79 210.845H110.382L114.522 200.017H115.832L119.988 210.845ZM117.029 206.669L115.336 202.055C115.28 201.904 115.225 201.663 115.17 201.331H115.14C115.09 201.638 115.032 201.879 114.967 202.055L113.288 206.669H117.029Z" fill="#262626"/>
<path d="M129.181 206.465C129.181 209.506 127.813 211.026 125.078 211.026C122.458 211.026 121.148 209.564 121.148 206.639V200.017H122.412V206.556C122.412 208.776 123.346 209.886 125.213 209.886C127.015 209.886 127.916 208.814 127.916 206.669V200.017H129.181V206.465Z" fill="#262626"/>
<path d="M139.623 210.845H138.117L136.31 207.809C136.145 207.528 135.984 207.288 135.828 207.092C135.673 206.891 135.512 206.727 135.347 206.601C135.186 206.475 135.01 206.385 134.82 206.329C134.634 206.269 134.423 206.239 134.187 206.239H133.148V210.845H131.883V200.017H135.106C135.577 200.017 136.012 200.077 136.408 200.198C136.81 200.314 137.156 200.492 137.447 200.734C137.743 200.976 137.974 201.278 138.14 201.64C138.305 201.998 138.388 202.418 138.388 202.901C138.388 203.279 138.33 203.626 138.215 203.943C138.105 204.255 137.944 204.535 137.733 204.781C137.527 205.028 137.276 205.24 136.98 205.416C136.689 205.587 136.36 205.72 135.994 205.816V205.846C136.175 205.927 136.33 206.02 136.461 206.126C136.596 206.226 136.724 206.347 136.845 206.488C136.965 206.629 137.083 206.79 137.199 206.971C137.319 207.148 137.452 207.354 137.598 207.591L139.623 210.845ZM133.148 201.164V205.091H134.865C135.181 205.091 135.472 205.043 135.738 204.948C136.009 204.852 136.242 204.716 136.438 204.54C136.634 204.359 136.787 204.14 136.897 203.883C137.008 203.621 137.063 203.329 137.063 203.007C137.063 202.428 136.875 201.977 136.498 201.655C136.127 201.328 135.587 201.164 134.88 201.164H133.148Z" fill="#262626"/>
<path d="M149.47 210.845H148.07L146.926 207.809H142.348L141.272 210.845H139.864L144.004 200.017H145.314L149.47 210.845ZM146.511 206.669L144.818 202.055C144.762 201.904 144.707 201.663 144.652 201.331H144.622C144.572 201.638 144.514 201.879 144.449 202.055L142.77 206.669H146.511Z" fill="#262626"/>
<path d="M159.769 210.845H158.218L152.662 202.214C152.522 201.998 152.406 201.771 152.316 201.534H152.271C152.311 201.766 152.331 202.262 152.331 203.022V210.845H151.066V200.017H152.708L158.113 208.512C158.339 208.864 158.484 209.106 158.55 209.237H158.58C158.53 208.925 158.505 208.393 158.505 207.643V200.017H159.769V210.845Z" fill="#262626"/>
<path d="M168.984 201.164H165.868V210.845H164.603V201.164H161.493V200.017H168.984V201.164Z" fill="#262626"/>
<path d="M176.408 210.845H170.686V200.017H176.167V201.164H171.951V204.766H175.85V205.907H171.951V209.697H176.408V210.845Z" fill="#262626"/>
</g>
<defs>
<clipPath id="clip0_1084_10088">
<rect width="206" height="177" fill="white" transform="translate(24 39)"/>
</clipPath>
</defs>
</svg>
